<?xml version="1.0" encoding="utf-8"?>
<!-- Generator: Adobe Illustrator 26.0.3, SVG Export Plug-In . SVG Version: 6.00 Build 0)  -->
<svg version="1.1" id="Lager_1" xmlns="http://www.w3.org/2000/svg" xmlns:xlink="http://www.w3.org/1999/xlink" x="0px" y="0px"
	 viewBox="0 0 724 614.9" style="enable-background:new 0 0 724 614.9;" xml:space="preserve">
<g id="Layer_1">
	<path d="M270.6,23.6l-2.1,5.7l-4.2,11.2L260,51.7l-4.4,11.1L251,73.9L246.3,85l-4.8,11l-4.9,11l-5,11l-5.1,10.9l-5.2,10.9
		l-5.3,10.8l-5.4,10.8l-5.5,10.7l-5.6,10.7l-5.6,10.6l-5.7,10.6l-5.8,10.5l-5.9,10.5l-6,10.4l-6.1,10.4l-6.2,10.3l-6.2,10.2
		l-6.3,10.2l-6.4,10.1l-6.5,10l-6.5,10l-6.6,9.9l-6.7,9.8l-6.7,9.8l-6.8,9.7l-6.9,9.6l-3.4,4.7l0,0l-0.1,0.1l-0.2,0.2l-0.2,0.2
		l-0.2,0.3l-0.2,0.3l-0.2,0.3l-0.2,0.3l-0.3,0.4l-0.3,0.4L87,363l-0.3,0.4l-0.3,0.5l-0.4,0.5l-0.4,0.5l-0.6,0.8l-0.8,1.1l-0.9,1.2
		l-1,1.3l-1,1.4l-1.1,1.4l-1.1,1.5l-1.2,1.5l-1.2,1.6l-1.2,1.7l-1.3,1.7l-1.3,1.7l-1.4,1.8l-1.4,1.8l-1.4,1.9l-1.4,1.9l-1.5,1.9
		l-2.3,2.9l-3.1,3.9l-3.1,3.9l-3.1,3.9l-3.1,3.8l-3.1,3.8l-2.3,2.7l-1.5,1.8l-1.5,1.7l-1.5,1.7l-1.4,1.6l-1.4,1.6l-1.4,1.5l-1.3,1.5
		l-1.3,1.4l-1.2,1.3l-1.2,1.2l-1.1,1.1l-1.1,1l-1,0.9l-0.9,0.8l-0.8,0.7l-0.7,0.6l-0.4,0.3l-0.2,0.1l-0.2,0.1l-0.1,0.1l-0.1,0.1l0,0
		l0,0h0.1l0.1-0.1l0.2-0.1l0.2-0.1l0.3-0.1l0.3-0.1l0.4-0.1l0.4-0.1h0.4h0.4h0.3l0.3,0.1l0.3,0.1l0.2,0.1l0.2,0.1l0.1,0.1L30,437
		l-0.2-0.2v-0.1l0,0v-0.1v-0.1v-0.2V436l0.1-0.3l0.1-0.4l0.1-0.5l0.2-0.5l0.2-0.6l0.2-0.7l0.3-0.7l0.5-1.2l0.7-1.6l0.8-1.6l0.8-1.6
		l0.6-1.2l0.4-0.8l0.4-0.8l0.4-0.8L36,422l0.4-0.7l0.4-0.7l0.3-0.7l0.3-0.7l0.3-0.7l0.2-0.5l0,0l0,0l0,0l0.5-1l0.9-1.8l0.9-1.7
		l0.9-1.7l0.9-1.7l1-1.7l1-1.6l1-1.6l1-1.6l1-1.6l1.1-1.5l1.1-1.5l1.1-1.5l1.1-1.5l1.1-1.4l1.2-1.4l1.2-1.4l1.2-1.4l1.2-1.4l1.2-1.3
		l1.3-1.3l1.3-1.3l1.3-1.3l1.3-1.3l1.3-1.2l1.3-1.2l1.4-1.2l1.4-1.2l1.4-1.2l1.4-1.1l1.4-1.1l1.4-1.1l1.5-1.1l1.5-1l1.5-1l1.5-1
		l1.5-1l1.5-1l1.5-0.9l1.6-0.9l1.6-0.9l1.6-0.9l1.6-0.8l1.6-0.8l1.6-0.8l1.6-0.8l2.5-1.1l3.3-1.4l3.3-1.2l3.3-1.1l2.4-0.7l1.6-0.4
		l1.7-0.4l1.7-0.4l1.7-0.4l1.7-0.3l1.7-0.3l1.7-0.3l1.7-0.2l1.7-0.2l0.8-0.1h-0.1l1.1-0.1l2-0.1h2l2,0.1l2,0.1l2,0.2l2,0.3l2,0.4
		l2,0.4l2,0.5l2,0.6l2,0.6l2,0.7l2,0.7l2,0.8l2,0.9l1.9,0.9l1.9,1l1.9,1l1.9,1l1.9,1.1l1.9,1.1l1.9,1.1l1.9,1.2l2.8,1.8l3.7,2.5
		l3.6,2.5l3.6,2.6l3.5,2.6l3.5,2.6l3.4,2.6l3.4,2.5l2.5,1.8l1.7,1.2l1.7,1.2l1.7,1.1l1.7,1.1l1.6,1.1l1.6,1l1.6,1l1.6,0.9l1.6,0.9
		l1.6,0.8l1.6,0.8l1.6,0.7l1.6,0.6l1.6,0.6l1.6,0.5l1.7,0.4l1.7,0.4l1.7,0.3l1.7,0.2l1.8,0.1h1.8l1.9-0.1l1.9-0.3l1.2-0.2l0,0
		c0.1,0,0.2,0,0.2-0.1l0,0l0.7-0.2l1.6-0.4l1.7-0.5l1.7-0.6l1.7-0.6l1.7-0.7l1.7-0.7l1.7-0.8l1.7-0.8l1.7-0.9l1.7-0.9l1.7-1l1.7-1
		l1.7-1.1l1.7-1.1l1.7-1.2l1.7-1.2l1.6-1.2l2.3-1.8l3.1-2.6l3.1-2.8l3-2.8l2.9-2.9l2.9-3l2.8-3l2.7-3.1l2.6-3.1l2.5-3.2l2.5-3.2
		l2.4-3.2l2.3-3.2l2.3-3.2l2.2-3.2l2.1-3.2l2.1-3.2l2-3.2l1.9-3.2l1.9-3.1l1.8-3.1l1.7-3l1.7-3l0.8-1.5l0,0v-0.1l0,0l0.8-1.5
		l1.7-3.3l1.7-3.4l1.7-3.4l1.7-3.4l1.2-2.5l0.8-1.7l0.7-1.6l0.7-1.6l0.7-1.6l0.6-1.5l0.6-1.5l0.6-1.4l0.5-1.4l0.5-1.4l0.4-1.3
		l0.4-1.3l0.3-1l0.2-0.7l0.1-0.6l0.1-0.6l0.1-0.6l0.1-0.6l0.1-0.7v-0.7v-0.7l-0.1-0.7l-0.2-0.7l-0.3-0.7l-0.4-0.7l-0.6-0.6l-0.8-0.5
		l-1.1-0.4l-1.3-0.1l-1.4,0.1l-1.5,0.4l-1.5,0.6l-1,0.5l0,0c-0.3,0.1-0.5,0.3-0.8,0.4l0,0l-0.3,0.1l-2.3,1.5L328,278l-2.8,3.2
		l-1.9,3l-1.1,2.5l-0.6,1.9l-0.3,1.6l-0.1,1.3v1.1l0.1,1l0.1,1l0.2,0.9l0.2,0.9l0.4,1.2l0.6,1.6l0.7,1.5l0.7,1.4l0.7,1.3l0.6,0.9
		l0.4,0.6l0.4,0.5l0.3,0.5l0.3,0.4l0.3,0.4l0.3,0.4l0.3,0.3l0.2,0.2l0,0l0.1,0.1l0,0l0.5,0.4l1.2,0.9l1.3,0.9l1.3,0.8l1.4,0.7
		l1.4,0.6l1.4,0.5l1.5,0.5l1.5,0.4l1.5,0.3l1.5,0.3l1.6,0.2l1.6,0.1l1.6,0.1h1.6l1.6-0.1l1.6-0.1l1.6-0.2l1.6-0.2l1.6-0.3l1.6-0.3
		l1.6-0.4l2.4-0.6l3.2-0.9l3.2-1.1l3.2-1.2l3.1-1.2l1.6-0.7l0,0c0,0,0.1,0,0.1-0.1l0,0l0.4-0.2l1-0.4l1-0.5l1-0.5l1-0.5l1-0.5
		l1.6-0.8l2.1-1.1l2.2-1.2l2.2-1.2l2.3-1.2l2.3-1.3l2.3-1.3l3.4-2l4.5-2.6l3.3-2l2.2-1.3l2.1-1.3l2-1.2l2-1.2l1.9-1.1l1.4-0.8
		l0.9-0.5l0.8-0.5l0.8-0.5l0.8-0.5l0.8-0.4l0.7-0.4l0.7-0.4l0.6-0.4l0.6-0.3l0.6-0.3l0.5-0.3l0.5-0.2l0.4-0.2l0.3-0.2l0.3-0.1
		l0.2-0.1h0.1l0,0l-0.2,0.1l-0.4,0.2l-0.8,0.2l-1.2,0.2l-1.8-0.1l-1.5-0.9l-0.6-0.8l0,0l-0.3-0.8l-0.1-1.3l0.2-1.3l0.3-1.2l0.4-1
		l0.4-0.8l0.3-0.6l0.2-0.4l0.2-0.3l0.1-0.1l0,0l0,0l-0.1,0.1l-0.1,0.2l-0.2,0.2l-0.2,0.3l-0.3,0.3l-0.3,0.3l-0.4,0.4l-0.4,0.4
		l-0.4,0.4l-0.5,0.5l-0.5,0.5l-0.8,0.8l-1.1,1.1l-1.2,1.2l-1.3,1.3l-1.4,1.3l-1.5,1.4l-1.6,1.4l-1.6,1.5l-1.7,1.5l-1.7,1.6l-1.8,1.6
		l-1.8,1.7l-1.9,1.7l-1.9,1.7l-2,1.7l-2,1.8l-3,2.7l-4.1,3.6l-4.2,3.6l-4.2,3.6l-4.2,3.6l-3.1,2.7l-2,1.7l-2,1.7l-2,1.7l-2,1.7
		l-1.9,1.6l-1.9,1.6l-1.8,1.6l-1.8,1.5l-1.7,1.5l-1.7,1.4l-1.6,1.4l-1.6,1.3l-1.5,1.3l-1.4,1.2l-1.4,1.1l-1,0.8l-0.6,0.5l-0.6,0.5
		l-0.6,0.5l-0.6,0.5l-0.5,0.5l-0.5,0.4l-0.5,0.4l-0.5,0.4l-0.4,0.4l-0.4,0.4l-0.4,0.3l-0.4,0.3l-0.3,0.3l-0.3,0.3l-0.3,0.2l-0.3,0.2
		l-0.2,0.2l-0.2,0.2l-0.2,0.2l-0.1,0.1l0,0l0,0l0,0l-43,37.3l-64.5,56l-43,37.3l-21.5,18.6l0,0l0,0l0,0l-6.7,5.8l-13.4,11.7L133,524
		l-10,8.6l-6.6,5.6l-6.6,5.6l-6.7,5.5l-6.7,5.4l-6.7,5.3l-6.7,5.2l-5,3.8l-3.3,2.5l-3.4,2.5l-3.4,2.5l-3.4,2.4l-3.4,2.4l-1.7,1.2
		l0,0c-5.4,3.8-9.3,10-8.6,14c0.7,3.9,5.6,4,11,0.3l0,0l1.9-1.3l3.7-2.6l3.7-2.6l3.6-2.7l3.6-2.7l3.6-2.7l5.4-4.1l7.1-5.6l7-5.6
		l7-5.7l6.9-5.7l6.9-5.8l6.8-5.8l10.2-8.7l13.4-11.7l13.4-11.6l6.7-5.8l0,0l21.6-18.6l43.1-37.3l64.5-56l43-37.3l0,0l0,0l0.1-0.1
		l0.2-0.1l0.2-0.2l0.2-0.2l0.3-0.2l0.3-0.3l0.3-0.3l0.4-0.3l0.4-0.3l0.4-0.3l0.4-0.4l0.5-0.4l0.5-0.4l0.5-0.4l0.5-0.5l0.6-0.5
		l0.6-0.5l0.6-0.5l0.6-0.5l1-0.8l1.4-1.2l1.4-1.2l1.5-1.3l1.6-1.3l1.6-1.4l1.7-1.4l1.8-1.5l1.8-1.5l1.9-1.6l1.9-1.6l1.9-1.7l2-1.7
		l2-1.7l2-1.8l2.1-1.8l3.1-2.7l4.2-3.7l4.3-3.7l4.3-3.7l4.2-3.7l3.1-2.7l2.1-1.8l2-1.8l2-1.8l2-1.8l1.9-1.7l1.9-1.7l1.9-1.7l1.8-1.7
		l1.8-1.6l1.7-1.6l1.7-1.5l1.6-1.5l1.5-1.5l1.5-1.4l1.4-1.4l1-1l0.7-0.7l0.6-0.7l0.6-0.7l0.6-0.6l0.6-0.6l0.6-0.6l0.6-0.6l0.6-0.6
		l0.6-0.6l0.6-0.7l0.6-0.7l0.6-0.7l0.6-0.7l0.6-0.8l0.6-0.9l0.6-1l0.6-1.1l0.6-1.2l0.6-1.4l0.5-1.5l0.2-1.6l-0.1-1.6l-0.4-1.1v-0.1
		l0,0c-0.2-0.3-0.3-0.6-0.6-0.8l0,0l-1.6-0.9l-2-0.2l-1.5,0.2l-1.1,0.3l-0.9,0.3l-0.8,0.3l-0.7,0.3l-0.6,0.3l-0.6,0.3l-0.6,0.3
		l-0.6,0.3l-0.6,0.3l-0.7,0.4l-0.7,0.4l-0.7,0.4l-0.7,0.4l-0.7,0.4l-0.8,0.4l-0.8,0.5l-0.8,0.5l-0.8,0.5l-0.9,0.5l-0.9,0.5l-0.9,0.5
		l-1.4,0.8l-1.9,1.1l-2,1.2l-2,1.2l-2.1,1.2l-2.1,1.2l-3.2,1.9l-4.3,2.5l-3.2,1.8l-2.1,1.2l-2.1,1.1l-2,1.1l-1.9,1.1l-1.9,1
		l-1.8,0.9l-1.3,0.7l-0.8,0.4l-0.8,0.4l-0.8,0.4l-0.7,0.3l-0.7,0.3l-0.4,0.2l0.1-0.1l-1.1,0.5l-2.4,1l-2.4,0.9l-2.4,0.8l-2.4,0.7
		l-1.8,0.5l-1.2,0.3l-1.2,0.2l-1.2,0.2l-1.2,0.2l-1.2,0.1l-1.1,0.1l-1.1,0.1H360h-1.1l-1.1-0.1l-1.1-0.1l-1.1-0.2l-1.1-0.2l-1.1-0.3
		l-1.1-0.3l-1-0.4l-1-0.5l-1-0.5l-1-0.6l-1-0.7l-1-0.8l-0.5-0.5l0.1,0.1v0.1l-0.1-0.1l-0.1-0.2l-0.2-0.2l-0.2-0.3l-0.3-0.4l-0.3-0.4
		l-0.3-0.4l-0.4-0.7l-0.6-1l-0.6-1.1l-0.5-1.1l-0.4-1.1l-0.3-0.8l-0.1-0.5l-0.1-0.4l-0.1-0.3v-0.2v-0.1v0.1l-0.1,0.4l-0.3,0.9
		l-0.7,1.5l-1.4,2.1l-2.1,2.3l-2.3,1.9l-1.4,0.8l0.3-0.1l-0.8,0.4l-0.8,0.3l-1,0.4l-1.1,0.2l-1,0.1l-0.9-0.1L327,291l-0.5-0.4
		l-0.4-0.4l-0.2-0.4l-0.1-0.4l-0.1-0.3v-0.3v-0.2v-0.1v-0.1l0,0v0.1v0.1v0.2v0.2l-0.1,0.4l-0.2,0.7l-0.3,0.8l-0.3,0.9l-0.4,1
		l-0.4,1.1l-0.5,1.2l-0.5,1.2l-0.6,1.3l-0.6,1.4l-0.6,1.4l-0.7,1.4l-1.1,2.2l-1.5,3l-1.5,3.1l-1.6,3l-1.6,3l-0.8,1.5v-0.1l-0.7,1.3
		l-1.5,2.7l-1.5,2.7l-1.6,2.7l-1.6,2.8l-1.7,2.8l-1.7,2.8l-1.8,2.8l-1.8,2.7l-1.8,2.7l-1.9,2.7l-1.9,2.6l-1.9,2.6l-2,2.5l-2,2.5
		l-2,2.4l-2,2.3l-2,2.2l-2,2.1l-2,2l-2,1.9l-2,1.8l-2,1.7l-1.5,1.2l-1,0.7l-1,0.7l-1,0.7l-1,0.7l-1,0.6l-1,0.6l-1,0.6l-1,0.5l-1,0.5
		l-1,0.5l-1,0.5l-1,0.4l-1,0.4l-1,0.4l-1,0.3l-1.1,0.3l-1.2,0.3l-0.7,0.2l0.2-0.1l-0.2,0.1l-0.9,0.2l-1,0.1h-1h-1.1l-1.2-0.1
		l-1.2-0.2l-1.3-0.3l-1.3-0.3l-1.3-0.4l-1.4-0.5l-1.4-0.6l-1.4-0.6l-1.4-0.7l-1.5-0.7l-1.5-0.8l-1.5-0.9l-1.5-0.9l-1.5-1l-1.6-1
		l-1.6-1l-1.6-1.1l-1.6-1.1l-1.6-1.2l-2.5-1.8l-3.4-2.5l-3.4-2.6l-3.5-2.6l-3.6-2.6l-3.6-2.6l-3.7-2.6l-3.8-2.6l-2.9-1.9l-1.9-1.2
		l-2-1.2l-2-1.2l-2-1.1l-2-1.1l-2-1.1l-2.1-1l-2.1-1l-2.1-0.9l-2.1-0.9l-2.2-0.8l-2.2-0.8l-2.2-0.7l-2.2-0.6l-2.3-0.6l-2.3-0.5
		l-2.3-0.4l-2.4-0.3l-2.4-0.2l-2.4-0.2l-2.5-0.1h-2.5l-2.5,0.1l-1.1,0.1l0,0h-0.1l0,0l-1,0.1l-2,0.2l-2,0.3l-2,0.3l-2,0.4l-2,0.4
		l-2,0.4l-2,0.5l-2,0.5l-2.1,0.6l-3.1,0.9l-4.1,1.4l-4.1,1.5l-4.1,1.7l-3.1,1.4l-2.1,1l-2.1,1l-2.1,1l-2.1,1.1l-2.1,1.1l-2.1,1.2
		l-2.1,1.2l-2,1.2l-2,1.3l-2,1.3l-2,1.4l-2,1.4l-2,1.4l-2,1.5l-2,1.5l-2,1.5l-2,1.6l-1.9,1.6l-1.9,1.6l-1.9,1.7l-1.9,1.7l-1.9,1.7
		l-1.8,1.8l-1.8,1.8l-1.8,1.8l-1.8,1.9l-1.7,1.9l-1.7,1.9l-1.7,2l-1.7,2l-1.6,2l-1.6,2l-1.6,2.1l-1.5,2.1l-1.5,2.1l-1.5,2.1
		l-1.4,2.1l-1.4,2.2l-1.3,2.2l-1.3,2.2l-1.3,2.2l-1.2,2.2l-1.2,2.2l-1.1,2.3l-1.1,2.2l-0.5,1l0,0v-0.1l-0.1,0.2l-0.2,0.4l-0.3,0.5
		l-0.3,0.6l-0.4,0.7l-0.4,0.8l-0.4,0.8l-0.5,0.9l-0.5,1l-0.8,1.6l-1.1,2.2l-1.1,2.3l-1.1,2.4l-0.7,1.8l-0.5,1.3l-0.5,1.3l-0.4,1.3
		l-0.4,1.3l-0.3,1.3l-0.3,1.3l-0.2,1.3l-0.1,1.3v1.3l0.1,1.3l0.3,1.2l0.4,1.1l0.5,0.9l0.2,0.2l0,0c0,0.1,0.1,0.1,0.2,0.2l0,0
		l0.3,0.3l0.5,0.5l0.6,0.4l0.7,0.3l0.8,0.2l0.9,0.1h0.9l1-0.1l1-0.2l1-0.2l1-0.3l1-0.4l1-0.4l1-0.5l1-0.5l0.9-0.5l0.9-0.6l0.9-0.6
		l0.9-0.6l0.9-0.6l0.8-0.6l0.9-0.7l1.3-1l1.6-1.3l1.6-1.4l1.5-1.4l1.5-1.5l1.5-1.5l1.6-1.6l1.6-1.6l1.6-1.7l1.6-1.7l1.6-1.8l1.6-1.8
		l1.6-1.8l1.6-1.9l1.6-1.9l1.7-1.9l1.7-2l2.5-3l3.3-4l3.3-4.1l3.3-4.1l3.2-4.1l3.2-4.1l2.3-3l1.5-2l1.5-2l1.5-1.9l1.4-1.9l1.4-1.8
		l1.4-1.8l1.3-1.8l1.3-1.7l1.2-1.7l1.2-1.6l1.1-1.5l1.1-1.5l1-1.4l1-1.3l0.9-1.3l0.9-1.2l0.6-0.8l0.4-0.5l0.4-0.5l0.4-0.5l0.3-0.5
		l0.3-0.4l0.3-0.4l0.3-0.4l0.3-0.4l0.2-0.3l0.2-0.3l0.2-0.3l0.2-0.2l0.2-0.2l0.1-0.1l0,0l0,0l0,0l3.6-5l7.1-9.9l7-10l6.9-10
		l6.9-10.1l6.8-10.2l6.7-10.3l6.6-10.3l6.6-10.4l6.5-10.4l6.4-10.5l6.3-10.6l6.2-10.6L193,224l6.1-10.7l6-10.8l5.9-10.8l5.8-10.9
		l5.7-10.9l5.6-11l5.5-11l5.4-11.1l5.3-11.1l5.2-11.2l5.1-11.2l5-11.2l4.9-11.3l4.8-11.3l4.7-11.4l4.5-11.4l4.4-11.4l4.3-11.4
		l2.1-5.7l0,0c1.9-5.2-0.6-8.3-5.8-6.7C278.2,12.8,272.5,18.3,270.6,23.6L270.6,23.6"/>
	<path d="M434.3,203.3h0.4h1h1.1l1.1-0.1l1.2-0.1l1.2-0.1l1.2-0.2l1.2-0.2l1.3-0.2l1.3-0.2l1.3-0.3l1.3-0.3l1.4-0.3l1.4-0.3l1.4-0.3
		l1.4-0.3l2.2-0.5l3-0.7l3-0.7l3.1-0.8l3.1-0.8l3.1-0.7l3.1-0.7l3.1-0.7l3.1-0.6l3-0.5l2.9-0.5l2.1-0.3l1.4-0.2l1.4-0.1l1.4-0.1
		l1.3-0.1l1.3-0.1h1.3h1.2h1.2l1.1,0.1l1.1,0.1l1.1,0.1l1,0.2l1,0.2l0.9,0.2l0.9,0.3l0.8,0.3l0.8,0.4l0.7,0.4l0.7,0.4l0.6,0.5
		l0.6,0.5l0.5,0.5l0.5,0.6l0.4,0.6l0.4,0.7l0.1,0.3l-0.1-0.1l0.1,0.3l0.2,0.5l0.1,0.4l0.1,0.4l0.1,0.4v0.4v0.4v0.4v0.4v0.4l-0.1,0.5
		L512,204l-0.1,0.5l-0.1,0.5l-0.2,0.5l-0.2,0.5l-0.2,0.5l-0.2,0.6l-0.3,0.6l-0.3,0.6l-0.3,0.6l-0.3,0.6l-0.4,0.7l-0.4,0.7l-0.4,0.7
		l-0.4,0.7l-0.8,1.2l-1.1,1.7l-1.2,1.7l-1.3,1.8l-1.4,1.8l-1.5,1.9l-1.6,1.9l-1.7,2l-1.8,2.1l-1.8,2.1l-1.9,2.1l-2,2.2l-2,2.2
		l-2.1,2.2l-2.1,2.3l-3.3,3.4l-4.5,4.6l-4.6,4.6l-4.7,4.6l-4.7,4.6l-3.5,3.4l-2.3,2.3l-2.3,2.3l-2.3,2.3l-2.2,2.2l-2.2,2.2l-2.2,2.2
		l-2.1,2.2l-2.1,2.1l-2,2.1l-2,2.1l-1.9,2.1l-1.9,2l-1.8,2l-1.3,1.5l-0.9,1l-0.8,1l-0.8,1l-0.8,1l-0.8,1l-0.8,1l-0.8,1l-0.7,1
		l-0.7,1l-0.7,1l-0.7,1l-0.6,1l-0.6,1l-0.6,1.1l-0.6,1.1l-0.5,1.1l-0.5,1.1l-0.4,1.1l-0.4,1.1L417,317l-0.3,1.1l-0.2,1.1l-0.1,1.1
		v0.7l0,0c0,0.1,0,0.2,0,0.3l0,0v0.3l0.1,1l0.2,1.1l0.3,1l0.4,0.9l0.5,0.7l0.6,0.6l0.7,0.5l0.7,0.4l0.8,0.4l0.8,0.3l0.8,0.2l0.9,0.2
		l0.9,0.1h0.9h0.9l1.3-0.1l1.7-0.2l1.8-0.3l1.7-0.3l1.7-0.4l1.6-0.4l1.5-0.4l1.4-0.4l0.7-0.2l0,0c0.1,0,0.1,0,0.2-0.1l0,0l0.4-0.1
		l1.2-0.5l1.3-0.6l1.3-0.6l1.3-0.7l1.3-0.7l1.3-0.7l1.3-0.8l1.3-0.8l1.3-0.8l1.3-0.8l1.3-0.9l1.3-0.9l1.3-0.9l1.9-1.3l2.5-1.8
		l2.5-1.9l2.5-1.9l2.5-1.9l3.7-2.9l4.8-3.8l3.5-2.8l2.2-1.7l2.2-1.7l2.1-1.6l2-1.5l1.4-1l0.9-0.6l0.9-0.6l0.9-0.5l0.8-0.5l0.8-0.5
		l0.7-0.4l0.7-0.4l0.6-0.3l0.6-0.3l0.5-0.2l0.5-0.2l0.4-0.2l0.4-0.1l0.3-0.1l0.3-0.1h0.3h0.2h0.2h0.2h0.2l0.2,0.1l0,0l-0.1-0.1
		l0.2,0.1l0.3,0.1l0.4,0.2l0.5,0.3l0.4,0.3l0.4,0.4l0.3,0.4l0.3,0.5l0.3,0.5l0.3,0.6l0.3,0.6l0.3,0.7l0.3,0.7l0.4,1.2l0.5,1.7
		l0.6,1.8l0.5,1.4l0.4,1l0.4,1l0.5,1l0.6,1l0.7,0.9l0.7,0.9l0.8,0.9l0.9,0.8l1.1,0.7l0.9,0.5l0.7,0.3l0.6,0.3l0.7,0.3l0.7,0.2
		l0.7,0.2l0.8,0.2l0.8,0.2l0.5,0.1l0,0h0.1l0,0l0.8,0.1l1.9,0.2l2,0.1h2l2-0.1l2.1-0.2l2.1-0.3l2.1-0.4l2.1-0.5l2.1-0.5l2-0.6l2-0.7
		l2-0.7l2-0.7l2.9-1.2l3.7-1.6l3.7-1.6l3.5-1.6l3.4-1.5l3.2-1.4l2.3-0.9l1.4-0.5l1.5-0.5l1.4-0.5l1.4-0.4l1.4-0.3l0.6-0.1h-0.2
		l0.8-0.2l1.3-0.2l1.2-0.2l1.3-0.1l1.3-0.1h1.3h1.4l1.4,0.1l2.2,0.2l2.9,0.3l2.9,0.4l3,0.5l3,0.5l3.1,0.5l3.1,0.5l3.2,0.4l2.5,0.2
		l1.7,0.1l1.7,0.1h1.7h1.8l1.8-0.1l1.8-0.2l1.9-0.3l1-0.2l0,0c0.1,0,0.1,0,0.2,0l0,0l1.1-0.2l2.5-0.6l2.6-0.7l2.6-0.7l2.6-0.8
		l2.5-0.9l2.5-0.9l2.5-1l2.5-1l2.4-1l3.5-1.6l4.6-2.2l4.5-2.2l4.4-2.1l4.3-2l3.1-1.4l2-0.9l2-0.8l2-0.8l2-0.7l2-0.7l2-0.6l2-0.6
		l2-0.5l2-0.4l2-0.4l2-0.3l0.9-0.1l0,0c4.7-0.5,10.7-5.4,13.6-10.8c2.8-5.4,1.3-9.4-3.3-8.8l-1.4,0.2l-2.6,0.4l-2.6,0.5l-2.6,0.6
		l-2.6,0.7l-2.6,0.8l-2.5,0.8l-2.5,0.9l-2.5,0.9l-2.5,1l-2.4,1l-2.4,1.1l-3.5,1.6l-4.5,2.1l-4.4,2.1l-4.3,2.1l-4.2,2l-3.1,1.4
		l-2,0.9l-2,0.8l-2,0.8l-2,0.7l-2,0.7l-1.9,0.6l-2,0.6l-2,0.5l-2,0.5l-1.2,0.2h0.2l-0.5,0.1l-1.2,0.2l-1.3,0.1l-1.3,0.1h-1.3h-1.4
		l-1.4-0.1l-1.4-0.1l-2.1-0.2l-2.9-0.4l-3-0.5l-3.1-0.5l-3.1-0.5l-3.2-0.5l-3.3-0.5L602,271l-2.5-0.2l-1.7-0.1H596h-1.8l-1.8,0.1
		l-1.9,0.2l-1.9,0.3l-1.9,0.3l-0.8,0.2l0,0c-0.1,0-0.1,0-0.2,0l0,0l-1.1,0.3l-2,0.5l-2,0.6l-2,0.6l-2,0.7l-2,0.7l-2.9,1.2L568,278
		l-3.5,1.6l-3.4,1.5l-3.3,1.5l-3.2,1.4l-2.3,0.9l-1.5,0.6l-1.4,0.5l-1.4,0.5l-1.4,0.4l-1.4,0.4l-1.4,0.3l-1.4,0.3l-1.3,0.2l-1.3,0.2
		l-1.3,0.1h-1.4l-1.4-0.1l-1.4-0.2l-0.8-0.1h0.1h-0.2l-0.5-0.1l-0.4-0.1l-0.4-0.1l-0.4-0.1l-0.4-0.1l-0.4-0.2l-0.3-0.1l-0.4-0.2
		l-0.6-0.4l-0.5-0.4l-0.5-0.5l-0.4-0.5l-0.4-0.5l-0.4-0.6l-0.3-0.6l-0.3-0.7l-0.3-0.7l-0.4-1.2l-0.5-1.7l-0.6-1.8l-0.5-1.4l-0.3-1
		l-0.4-1l-0.4-1l-0.5-1l-0.6-0.9l-0.7-0.9l-0.8-0.8l-0.9-0.8l-1-0.7l-1-0.6l-0.8-0.4l-0.6-0.2l-0.2-0.1l0,0c0,0-0.1,0-0.1-0.1l0,0
		l-0.6-0.2l-1.1-0.2l-1.2-0.1h-1.2l-1.3,0.1l-1.3,0.2l-1.3,0.3l-1.3,0.3l-1.3,0.4l-1.3,0.5l-1.3,0.5l-1.3,0.6l-1.3,0.6l-1.3,0.7
		l-1.3,0.7l-1.3,0.7l-1.3,0.8l-1.3,0.8l-1.3,0.8l-1.3,0.8l-1.3,0.9l-1.3,0.9l-2,1.4l-2.6,1.8l-2.5,1.9l-2.5,1.9l-2.5,2l-3.7,2.9
		l-4.8,3.8l-3.5,2.8l-2.3,1.8l-2.2,1.7l-2.1,1.6l-2,1.5l-1.5,1.1l-0.9,0.6l-0.9,0.6l-0.8,0.6l-0.8,0.5l-0.8,0.5l-0.7,0.4l-0.7,0.4
		l-0.6,0.3l-0.5,0.3l-0.5,0.3l-0.4,0.2l-0.4,0.2l-0.4,0.2l-0.4,0.1l0.2-0.1l-0.4,0.1l-0.9,0.3l-0.9,0.3l-1,0.3l-1,0.2l-0.9,0.2
		l-0.9,0.2l-0.9,0.1h-0.6h-0.3h-0.3h-0.2h-0.2h-0.2h-0.1H437h-0.1l0,0l0,0l0,0v0.1v0.1v0.1v-0.1v-0.3v0.3v0.2v0.1v0.1v0.1l0,0l0,0
		l0,0v-0.1l0.1-0.1l0.1-0.2l0.1-0.2l0.2-0.3l0.2-0.3l0.2-0.4l0.3-0.4l0.3-0.5l0.4-0.5l0.4-0.5l0.4-0.6l0.5-0.6l0.5-0.6l0.5-0.7
		l0.6-0.7l0.6-0.7l0.9-1.1l1.4-1.6l1.5-1.7l1.6-1.8l1.7-1.8l1.8-1.9l1.9-2l2-2l2-2.1l2.1-2.1l2.2-2.2l2.2-2.2l2.3-2.2l2.3-2.3
		l3.5-3.5l4.8-4.7l4.8-4.8l4.9-4.9l4.8-4.9l3.6-3.7l2.4-2.5l2.3-2.5l2.3-2.5l2.3-2.5l2.2-2.5l2.2-2.5l2.1-2.5l2.1-2.5l2-2.5l2-2.5
		l1.9-2.5l1.8-2.5l1.7-2.5l1.6-2.5l1.1-1.8l0.8-1.3l0.7-1.3l0.7-1.3l0.7-1.3l0.6-1.3l0.6-1.3l0.6-1.3l0.5-1.3l0.5-1.3l0.4-1.2
		l0.4-1.2l0.4-1.2l0.3-1.2l0.3-1.2l0.2-1.2l0.1-1.2l0.1-1.1v-1.1v-1.1l-0.1-1l-0.1-1l-0.2-1l-0.2-0.9l-0.3-0.9l-0.3-0.8l-0.1-0.3
		l0,0c0,0,0-0.1-0.1-0.1l0,0l-0.3-0.7l-0.7-1.1l-0.8-1.1l-0.8-1l-0.9-0.9l-1-0.8l-1-0.7l-1.1-0.7l-1.1-0.6l-1.2-0.5l-1.2-0.5
		l-1.3-0.4l-1.3-0.3l-1.4-0.3l-1.4-0.2l-1.4-0.2l-1.5-0.1l-1.5-0.1h-1.5h-1.5h-1.6l-1.6,0.1l-1.6,0.1l-1.6,0.1l-1.6,0.2l-1.7,0.2
		L496,174l-3.3,0.5l-3.3,0.6l-3.3,0.7l-3.3,0.7l-3.3,0.7l-3.2,0.8l-3.2,0.8l-3.1,0.8l-3,0.7l-2.9,0.7l-2.1,0.5l-1.3,0.3l-1.3,0.3
		l-1.2,0.3l-1.2,0.3l-1.1,0.2l-1.1,0.2l-1,0.2l-1,0.2l-0.9,0.1l-0.8,0.1l-0.8,0.1l-0.7,0.1H449h-0.5H448h-0.4l0,0
		c-4.2-0.3-10.4,3.9-13.9,9.3C429.5,198.3,430.1,203,434.3,203.3L434.3,203.3"/>
</g>
</svg>
